<!DOCTYPE svg PUBLIC "-//W3C//DTD SVG 1.1//EN" "http://www.w3.org/Graphics/SVG/1.1/DTD/svg11.dtd">
<!-- Uploaded to: SVG Repo, www.svgrepo.com, Transformed by: SVG Repo Mixer Tools -->
<svg width="64px" height="64px" viewBox="-33 0 256 256" xmlns="http://www.w3.org/2000/svg" xmlns:xlink="http://www.w3.org/1999/xlink" preserveAspectRatio="xMidYMid" fill="#000000">
<g id="SVGRepo_bgCarrier" stroke-width="0"/>
<g id="SVGRepo_tracerCarrier" stroke-linecap="round" stroke-linejoin="round"/>
<g id="SVGRepo_iconCarrier"> <defs> <style> .cls-3 { fill: url(#linear-gradient-1); } .cls-4 { fill: #fce202; } .cls-5 { fill: #919191; } .cls-6 { fill: #333333; } </style> <linearGradient id="linear-gradient-1" gradientUnits="userSpaceOnUse" x1="72" y1="256" x2="72" y2="83"> <stop offset="0" stop-color="#0bdfff"/> <stop offset="1" stop-color="#00bcf2"/> </linearGradient> </defs> <g id="energy_bottle"> <path d="M134.000,240.000 C134.000,248.836 126.836,256.000 118.000,256.000 C118.000,256.000 26.000,256.000 26.000,256.000 C17.163,256.000 10.000,248.836 10.000,240.000 C10.000,240.000 -0.000,99.000 -0.000,99.000 C-0.000,90.163 7.163,83.000 16.000,83.000 C16.000,83.000 128.000,83.000 128.000,83.000 C136.836,83.000 144.000,90.163 144.000,99.000 C144.000,99.000 134.000,240.000 134.000,240.000 Z" id="path-1" class="cls-3" fill-rule="evenodd"/> <path d="M82.145,203.674 C80.944,206.415 78.527,209.000 75.200,209.000 C71.223,209.000 68.000,205.776 68.000,201.800 C68.000,201.800 68.000,177.000 68.000,177.000 C68.000,177.000 51.200,177.000 51.200,177.000 C47.223,177.000 44.000,174.800 44.000,169.800 C44.000,164.800 61.855,126.326 61.855,126.326 C63.056,123.584 65.473,121.000 68.800,121.000 C72.776,121.000 76.000,124.223 76.000,128.200 C76.000,128.200 76.000,153.000 76.000,153.000 C76.000,153.000 92.800,153.000 92.800,153.000 C96.776,153.000 100.000,155.343 100.000,160.200 C100.000,165.057 82.145,203.674 82.145,203.674 Z" id="path-2" class="cls-4" fill-rule="evenodd"/> <rect id="rect-1" class="cls-5" x="23" y="33" width="98" height="33"/> <path d="M157.000,83.000 C157.000,83.000 18.000,83.000 18.000,83.000 C13.582,83.000 10.000,79.418 10.000,75.000 C10.000,75.000 10.000,74.000 10.000,74.000 C10.000,69.582 13.582,66.000 18.000,66.000 C18.000,66.000 126.000,66.000 126.000,66.000 C130.418,66.000 134.000,69.582 134.000,74.000 C134.000,74.000 134.000,75.000 134.000,75.000 C134.000,75.000 157.000,75.000 157.000,75.000 C170.807,75.000 182.000,63.807 182.000,50.000 C182.000,36.193 170.807,25.000 157.000,25.000 C157.000,25.000 23.000,25.000 23.000,25.000 C23.000,25.000 23.000,16.000 23.000,16.000 C23.000,11.582 26.582,8.000 31.000,8.000 C31.000,8.000 52.000,8.000 52.000,8.000 C52.000,8.000 52.000,7.000 52.000,7.000 C52.000,3.134 55.134,-0.000 59.000,-0.000 C59.000,-0.000 85.000,-0.000 85.000,-0.000 C88.866,-0.000 92.000,3.134 92.000,7.000 C92.000,7.000 92.000,8.000 92.000,8.000 C92.000,8.000 113.000,8.000 113.000,8.000 C117.418,8.000 121.000,11.582 121.000,16.000 C121.000,16.000 121.000,17.000 121.000,17.000 C121.000,17.000 157.000,17.000 157.000,17.000 C175.225,17.000 190.000,31.774 190.000,50.000 C190.000,68.225 175.225,83.000 157.000,83.000 Z" id="path-3" class="cls-6" fill-rule="evenodd"/> </g> </g>
</svg>